Coordinates
version=1
nRows=31
nColumns=38
inDegrees=no

Units are S.I. units (second, meters, Newtons, ...)
If the header above contains a line with 'inDegrees', this indicates whether rotational values are in degrees (yes) or radians (no).

endheader
time	pelvis_tilt	pelvis_list	pelvis_rotation	pelvis_tx	pelvis_ty	pelvis_tz	hip_flexion_r	hip_adduction_r	hip_rotation_r	knee_angle_r	ankle_angle_r	subtalar_angle_r	mtp_angle_r	hip_flexion_l	hip_adduction_l	hip_rotation_l	knee_angle_l	ankle_angle_l	subtalar_angle_l	mtp_angle_l	lumbar_extension	lumbar_bending	lumbar_rotation	arm_flex_r	arm_add_r	arm_rot_r	elbow_flex_r	pro_sup_r	wrist_flex_r	wrist_dev_r	arm_flex_l	arm_add_l	arm_rot_l	elbow_flex_l	pro_sup_l	wrist_flex_l	wrist_dev_l
0.55	3.12905	1.24455	-1.42843	0.622187	0.0770539	0.94809	-0.259449	-0.157071	-0.322075	1.10656	-0.514787	0	0	-0.105462	-0.033137	-0.462846	0.440585	-0.22434	0	0	-0.451816	0.00209419	-0.259081	0.133058	-0.465839	1.0259	0.652963	0.5471	0	0	-0.280103	-0.386899	-0.0641954	0.938047	1.56481	0	0
0.56	3.11714	1.24186	-1.41443	0.620888	0.0868402	0.950208	-0.224698	-0.156402	-0.308341	1.15785	-0.4515	0	0	-0.120846	-0.0377483	-0.457952	0.435437	-0.222171	0	0	-0.45416	0.00887516	-0.261369	0.147307	-0.46783	1.05121	0.648194	0.529164	0	0	-0.268522	-0.391102	-0.0596607	0.93349	1.5644	0	0
0.57	3.10185	1.24041	-1.39749	0.619915	0.0965381	0.952343	-0.188707	-0.154135	-0.296076	1.20318	-0.401785	0	0	-0.135191	-0.0432145	-0.450189	0.427032	-0.221684	0	0	-0.454743	0.0163592	-0.261756	0.159196	-0.467613	1.07165	0.640936	0.515043	0	0	-0.25517	-0.396934	-0.0510382	0.927595	1.56516	0	0
0.58	3.08293	1.24058	-1.37833	0.619102	0.106214	0.954441	-0.151945	-0.150416	-0.285202	1.2395	-0.367845	0	0	-0.148564	-0.0490501	-0.442757	0.416539	-0.221127	0	0	-0.453401	0.0245297	-0.259635	0.168769	-0.466719	1.08775	0.632791	0.503655	0	0	-0.240052	-0.403042	-0.0392188	0.920394	1.56559	0	0
0.59	3.06174	1.24187	-1.35727	0.61839	0.115876	0.956452	-0.114573	-0.145059	-0.274133	1.26935	-0.341373	0	0	-0.161299	-0.0549885	-0.435764	0.405365	-0.219292	0	0	-0.450372	0.0333232	-0.256116	0.176522	-0.466203	1.10227	0.625533	0.49219	0	0	-0.223209	-0.409684	-0.0239813	0.912343	1.56286	0	0
0.6	3.03986	1.24159	-1.33541	0.617614	0.125429	0.958436	-0.0801332	-0.138502	-0.263882	1.29183	-0.327692	0	0	-0.175673	-0.0616843	-0.432287	0.396068	-0.217218	0	0	-0.449609	0.0429045	-0.253318	0.183306	-0.467108	1.11286	0.622205	0.483314	0	0	-0.208228	-0.416328	-0.0103905	0.908492	1.55859	0	0
0.61	3.01582	1.24705	-1.31106	0.616804	0.135232	0.959945	-0.0405899	-0.132049	-0.253815	1.31143	-0.286511	0	0	-0.18397	-0.0666826	-0.425508	0.387173	-0.20785	0	0	-0.443189	0.0510736	-0.250499	0.170099	-0.457091	1.0576	0.609635	0.54444	0	0	-0.194966	-0.415116	-0.0143164	0.905358	1.5708	0	0
0.62	2.99362	1.24852	-1.28783	0.615918	0.144726	0.961508	-0.00824498	-0.124276	-0.24428	1.32225	-0.263258	0	0	-0.196451	-0.0719936	-0.419333	0.378191	-0.201879	0	0	-0.439827	0.0606483	-0.249532	0.175238	-0.457729	1.06559	0.606583	0.539944	0	0	-0.182321	-0.418216	-0.00972091	0.904818	1.5708	0	0
0.63	2.97097	1.25018	-1.26397	0.615046	0.154261	0.962863	0.0226184	-0.115374	-0.234065	1.32607	-0.241674	0	0	-0.208387	-0.0775934	-0.413517	0.369294	-0.19663	0	0	-0.43592	0.0701132	-0.249087	0.179915	-0.458674	1.07383	0.604484	0.535574	0	0	-0.171141	-0.420267	-0.00858244	0.906517	1.5708	0	0
0.64	2.94663	1.25306	-1.23849	0.614366	0.163686	0.963896	0.0523939	-0.102367	-0.207572	1.32146	-0.221332	0	0	-0.218078	-0.0838496	-0.407579	0.360559	-0.192374	0	0	-0.431046	0.0793011	-0.249263	0.184658	-0.459764	1.08206	0.603726	0.53064	0	0	-0.161757	-0.421864	-0.011151	0.911282	1.5708	0	0
0.65	2.92965	1.2528	-1.2166	0.613317	0.173126	0.964913	0.0769656	-0.0952987	-0.20546	1.3147	-0.208512	0	0	-0.230789	-0.0903096	-0.40318	0.352501	-0.190502	0	0	-0.42908	0.0882962	-0.253085	0.188372	-0.461751	1.08839	0.605393	0.526144	0	0	-0.153971	-0.424105	-0.0148431	0.919589	1.5708	0	0
0.66	2.91668	1.25122	-1.19654	0.612124	0.182498	0.965828	0.0968779	-0.0903653	-0.209305	1.30443	-0.190465	0	0	-0.244879	-0.096483	-0.396884	0.343765	-0.188373	0	0	-0.428771	0.0971235	-0.2593	0.193266	-0.464483	1.09848	0.608541	0.518257	0	0	-0.147845	-0.425859	-0.0218067	0.931093	1.5708	0	0
0.67	2.90683	1.24933	-1.17894	0.610875	0.191887	0.966584	0.113635	-0.0872512	-0.213896	1.29088	-0.172092	0	0	-0.25984	-0.102097	-0.391488	0.334761	-0.186129	0	0	-0.428908	0.105192	-0.265798	0.197825	-0.467773	1.10886	0.612491	0.50952	0	0	-0.141902	-0.427869	-0.0283576	0.944114	1.5708	0	0
0.68	2.90004	1.24775	-1.16415	0.609668	0.201322	0.967085	0.128367	-0.0859497	-0.21642	1.27347	-0.15787	0	0	-0.275201	-0.106832	-0.387162	0.32559	-0.183146	0	0	-0.428674	0.111959	-0.272053	0.20166	-0.471783	1.11942	0.617458	0.499651	0	0	-0.135609	-0.431934	-0.0302828	0.958064	1.56754	0	0
0.69	2.8955	1.24564	-1.15097	0.608381	0.210681	0.967482	0.141254	-0.0865064	-0.225027	1.24528	-0.153448	0	0	-0.291325	-0.111341	-0.383764	0.316732	-0.180326	0	0	-0.42875	0.118396	-0.277741	0.204978	-0.476474	1.13036	0.622771	0.488697	0	0	-0.127198	-0.438127	-0.0253055	0.971119	1.55334	0	0
0.7	2.89564	1.24353	-1.14144	0.607062	0.220204	0.967696	0.151254	-0.0909326	-0.242023	1.21458	-0.150683	0	0	-0.308366	-0.114813	-0.380274	0.30746	-0.177333	0	0	-0.430439	0.123139	-0.286632	0.203536	-0.476856	1.12134	0.625008	0.502368	0	0	-0.124124	-0.437286	-0.0401315	0.988884	1.55866	0	0
0.71	2.89992	1.24052	-1.13556	0.605727	0.229758	0.967809	0.156531	-0.0990411	-0.267121	1.1854	-0.145163	0	0	-0.326993	-0.117623	-0.376136	0.297563	-0.174473	0	0	-0.43337	0.127026	-0.2957	0.202244	-0.477886	1.11367	0.627705	0.511744	0	0	-0.12073	-0.437931	-0.051402	1.00731	1.55909	0	0
0.72	2.90662	1.23732	-1.1326	0.6045	0.239296	0.967755	0.158768	-0.109063	-0.295838	1.1547	-0.139038	0	0	-0.346207	-0.119757	-0.371004	0.2872	-0.17149	0	0	-0.437325	0.129807	-0.304318	0.20121	-0.478914	1.10634	0.630503	0.520328	0	0	-0.117906	-0.439374	-0.0615208	1.02702	1.55892	0	0
0.73	2.91568	1.23935	-1.13492	0.603891	0.249058	0.966895	0.168219	-0.118841	-0.316611	1.11466	-0.143313	0	0	-0.360352	-0.118955	-0.367089	0.278761	-0.167232	0	0	-0.436457	0.127693	-0.311281	0.199134	-0.47918	1.09972	0.632992	0.528592	0	0	-0.116831	-0.442199	-0.0701664	1.04774	1.55892	0	0
0.74	2.91855	1.23921	-1.13125	0.603089	0.258599	0.966402	0.171419	-0.122665	-0.336658	1.06429	-0.153068	0	0	-0.375207	-0.121135	-0.364277	0.270934	-0.163323	0	0	-0.437915	0.129067	-0.316569	0.198743	-0.478728	1.09469	0.631994	0.537224	0	0	-0.112629	-0.443581	-0.076506	1.06518	1.55739	0	0
0.75	2.92271	1.23698	-1.12859	0.602257	0.268269	0.965982	0.168226	-0.125111	-0.358956	1.00987	-0.161959	0	0	-0.39242	-0.124091	-0.361593	0.263134	-0.159621	0	0	-0.441215	0.131028	-0.321683	0.198333	-0.478587	1.09038	0.631039	0.545881	0	0	-0.107869	-0.444604	-0.0818293	1.08162	1.55339	0	0
0.76	2.92874	1.237	-1.13068	0.601941	0.277968	0.96507	0.166616	-0.126578	-0.375155	0.953789	-0.171343	0	0	-0.407915	-0.12464	-0.358029	0.255824	-0.148997	0	0	-0.443363	0.129805	-0.328591	0.208524	-0.477867	1.11502	0.627808	0.535325	0	0	-0.108974	-0.447203	-0.0909741	1.10194	1.54922	0	0
0.77	2.93597	1.24521	-1.13783	0.602222	0.288195	0.9631	0.176306	-0.131511	-0.385596	0.90502	-0.168354	0	0	-0.414962	-0.121072	-0.359239	0.25253	-0.143347	0	0	-0.435718	0.122976	-0.328532	0.207959	-0.479369	1.12223	0.628593	0.529672	0	0	-0.105086	-0.450879	-0.0898742	1.11526	1.54768	0	0
0.78	2.93495	1.24764	-1.13617	0.602199	0.298108	0.961915	0.174548	-0.127239	-0.396307	0.836958	-0.168963	0	0	-0.426587	-0.122095	-0.359116	0.247863	-0.138645	0	0	-0.43388	0.122558	-0.326628	0.210582	-0.481303	1.13353	0.627315	0.520222	0	0	-0.0974323	-0.453206	-0.0859418	1.12489	1.5441	0	0
0.79	2.94738	1.26559	-1.15226	0.603885	0.309593	0.958309	0.184713	-0.116458	-0.372953	0.717032	-0.201006	0	0	-0.424669	-0.114495	-0.362392	0.249474	-0.126459	0	0	-0.414818	0.106049	-0.32532	0.198789	-0.476916	1.11856	0.624709	0.536656	0	0	-0.0997029	-0.457447	-0.0882262	1.13929	1.5456	0	0
0.8	2.93494	1.26052	-1.13999	0.602987	0.31876	0.958269	0.174126	-0.119074	-0.4068	0.697723	-0.17387	0	0	-0.441677	-0.119559	-0.361092	0.243527	-0.123422	0	0	-0.423083	0.114796	-0.320576	0.200694	-0.477725	1.1109	0.61983	0.548186	0	0	-0.0875196	-0.452854	-0.0876711	1.14438	1.54822	0	0
0.81	2.9349	1.2663	-1.14349	0.603611	0.329127	0.956349	0.170172	-0.112283	-0.40781	0.623057	-0.163736	0	0	-0.449717	-0.117946	-0.361656	0.241773	-0.117291	0	0	-0.419024	0.111138	-0.316152	0.196743	-0.477567	1.10193	0.619332	0.558279	0	0	-0.0827912	-0.452187	-0.0885577	1.15288	1.54986	0	0
0.82	2.93027	1.27245	-1.14397	0.604441	0.339562	0.954376	0.163675	-0.101106	-0.401049	0.540503	-0.1648	0	0	-0.456666	-0.117043	-0.363349	0.241335	-0.109606	0	0	-0.414097	0.10827	-0.309828	0.192835	-0.476593	1.09249	0.61697	0.571266	0	0	-0.0774927	-0.450494	-0.0887659	1.1591	1.55167	0	0
0.83	2.92323	1.27883	-1.14298	0.605448	0.350107	0.952333	0.153555	-0.0868082	-0.386778	0.449768	-0.176204	0	0	-0.462896	-0.116533	-0.365737	0.242059	-0.101485	0	0	-0.408869	0.105573	-0.302653	0.188595	-0.47473	1.08182	0.613669	0.585007	0	0	-0.073338	-0.448574	-0.0891732	1.16451	1.55543	0	0
0.84	2.91368	1.28401	-1.13981	0.606644	0.360722	0.950306	0.136008	-0.0679303	-0.360584	0.343966	-0.21384	0	0	-0.469946	-0.117373	-0.369055	0.243581	-0.0915466	0	0	-0.40469	0.103866	-0.296171	0.187168	-0.472443	1.07814	0.609889	0.59269	0	0	-0.0713056	-0.445036	-0.0937928	1.16987	1.56238	0	0
0.85	2.90464	1.29001	-1.13711	0.607998	0.371528	0.948057	0.115424	-0.0495786	-0.325318	0.235827	-0.236769	0	0	-0.475998	-0.117892	-0.372159	0.246015	-0.0834833	0	0	-0.398635	0.101565	-0.290413	0.191122	-0.472139	1.09604	0.607285	0.579927	0	0	-0.0702745	-0.443379	-0.0952865	1.17331	1.56404	0	0
